<svg xmlns="http://www.w3.org/2000/svg" viewBox="0 0 512 512">
  <path d="M486.4 273H478V94c0-42.8-34.3-77-77-77-37.7 0-65 28-68 69-19.7 4-34.3 21-34.3 42 0 5 3.4 8.5 8.5 8.5h68.3c5 0 8.5-3.4 8.5-8.5 0-20.8-14.3-37.8-33.8-41.8 2.6-27 19-52 51-52 33 0 59.6 26.4 59.6 59.7v179H204c-4-19.6-21-34-42-34-8.4-10.3-20.3-17-34-17-16.2 0-30.7 9.3-37.5 23-7-3.5-14.6-6-22.2-6-21 0-38 14.4-42 34h-.7C11 273 0 284.3 0 298.8s11 25.6 25.6 25.6H36l23 91.3c6.7 26.4 30.6 45.2 58 45.2h6.7l-11 22.2c-2.6 4.3-1 9.4 3.4 11 1 1 2.6 1 3.5 1 3.4 0 6-1.8 7.6-4.3l15-30h237l14.4 29c1.7 3.5 4.3 5.2 7.7 5.2 1.8 0 2.6 0 3.5-1.8 3.4-1.7 5-6.8 3.4-11L397 460.7c26.4-1 49.3-19.4 56-44.4l23.2-92h10c14.5 0 25.6-11.2 25.6-25.7S501 273 486.4 273zM366 119.6h-48.6c3.5-10.3 13.7-17 24.8-17s20.5 6.7 24 17zM68.4 256c7.6 0 14.5 3.4 20.4 9.4 1.8 2.5 5.2 3.4 8.6 2.5s5-3.5 6-7c2.5-12.7 12.8-22 25.6-22 9.2 0 17.8 4.2 22 12.7 1.7 3.4 6 5.2 9.4 4.3h2.6c11 0 20.5 6.8 24 17H44.3c3.4-10.2 12.8-17 24-17zm369.5 155.3c-5.2 18.8-22.2 32.4-42 32.4H118c-19.7 0-36.7-13.6-42-32.4l-22-87h404.4l-20.4 87zm48.6-104H25.7c-5.2 0-8.6-3.5-8.6-8.6s3.5-8.6 8.6-8.6h460.8c5.2 0 8.6 3.5 8.6 8.7s-3.5 8.5-8.6 8.5z"/>
  <path d="M307.2 175c5 0 8.5-3.5 8.5-8.6V162c0-5-3.4-8.4-8.5-8.4s-8.5 3.4-8.5 8.5v4.4c0 5 3.4 8.5 8.5 8.5zM307.2 214.2c5 0 8.5-4.3 8.5-8.5v-9.4c0-5.2-3.4-8.6-8.5-8.6s-8.5 3.4-8.5 8.6v9.4c0 5 3.4 8.5 8.5 8.5zM307.2 247.5c5 0 8.5-3.4 8.5-8.6v-4.3c0-5.2-3.4-8.6-8.5-8.6s-8.5 3.5-8.5 8.7v4.2c0 5 3.4 8.5 8.5 8.5zM341.3 175c5.2 0 8.6-3.5 8.6-8.6V162c0-5-3.5-8.4-8.7-8.4-5 0-8.5 3.4-8.5 8.5v4.4c0 5 3.4 8.5 8.5 8.5zM332.8 205.7c0 5 3.4 8.5 8.5 8.5 5.2 0 8.6-4.3 8.6-8.5v-9.4c0-5.2-3.5-8.6-8.7-8.6-5 0-8.5 3.4-8.5 8.6v9.4zM332.8 239c0 5 3.4 8.5 8.5 8.5 5.2 0 8.6-3.4 8.6-8.6v-4.3c0-5.2-3.5-8.6-8.7-8.6-5 0-8.5 3.5-8.5 8.7v4.2zM375.5 175c5 0 8.5-3.5 8.5-8.6V162c0-5-3.4-8.4-8.5-8.4S367 157 367 162v4.4c0 5 3.3 8.5 8.5 8.5zM367 205.7c0 5 3.3 8.5 8.5 8.5s8.5-4.3 8.5-8.5v-9.4c0-5.2-3.4-8.6-8.5-8.6s-8.6 3.4-8.6 8.6v9.4zM367 239c0 5 3.3 8.5 8.5 8.5s8.5-3.4 8.5-8.6v-4.3c0-5.2-3.4-8.6-8.5-8.6s-8.6 3.5-8.6 8.7v4.2z"/>
</svg>
