<svg xmlns="http://www.w3.org/2000/svg" viewBox="0 0 512 512">
  <path d="M503.5 495H495V8.3c0-5-3.5-8.5-8.6-8.5S478 3.4 478 8.5v94h-19.7c1.6-3.7 2.5-7.8 2.5-12V80.2c0-16.2-12.8-29-29-29h-215c-16.3 0-29 12.8-29 29v10.3c0 4.2.8 8.3 2.4 12h-22c1.6-3.7 2.5-7.8 2.5-12V80.2c0-16.2-12.8-29-29-29H80.2c-16.2 0-29 12.8-29 29v10.3c0 4.2 1 8.3 2.5 12H34v-94c0-5-3.3-8.5-8.4-8.5S17 3.4 17 8.5v486.3H8.6c-5 0-8.5 3.3-8.5 8.5s3.4 8.5 8.5 8.5h495.1c5 0 8.5-3.4 8.5-8.5s-3.4-8.6-8.5-8.6zM34 187.6h256v128h-73.3c-16.2 0-29 12.8-29 29V355c0 4.3 1 8.3 2.5 12h-22c1.6-3.7 2.5-7.7 2.5-12v-10.3c0-16.2-12.8-29-29-29H80.2c-16.2 0-29 12.8-29 29V355c0 4.3 1 8.3 2.5 12H34V187.6zm375.6-68.2V145H307.2v-25.5h102.4zM204.8 355v-10.3c0-6.8 5-12 12-12H290V367h-73.3c-6.8 0-12-5.2-12-12zm239 0c0 6.8-5.2 12-12 12h-5v-34.2h5c6.8 0 12 5 12 12V355zm-34.2-90.5v17H307.2v-17h102.4zm-102.4-17v-17h102.4v17H307.2zm102.4-34.2H307.2v-17h102.4v17zm-102.4 85.4h102.4v17H307.2v-17zm102.4 34V350H307.2v-17.2h102.4zm-102.4 42.8V367h102.4v17H307.2v-8.5zm102.4-196.3H307.2v-17h102.4v17zm-102.4 222h102.4v17H307.2v-17zM426.7 384H478v51.2h-51.3V384zm51.2-17h-19.7c1.6-3.7 2.5-7.7 2.5-12v-10.3c0-16.2-12.8-29-29-29h-5v-128h51V367zM68.2 355v-10.3c0-6.8 5-12 12-12h61.4c6.8 0 12 5.2 12 12V355c0 6.8-5.2 12-12 12H80.2c-6.8 0-12-5.2-12-12zM34 384h256.1v51.2H34V384zm273.2 59.7v-8.5h102.4v17.1H307.2v-8.6zm119.5 8.6H478V495h-51.3v-42.7zM478 170.7h-51.3v-51.2H478v51.2zM204.7 90.5V80.2c0-6.8 5-12 12-12h215c6.8 0 12 5.2 12 12v10.3c0 6.8-5.2 12-12 12h-215c-6.8 0-12-5.2-12-12zm-136.5 0V80.2c0-6.8 5-12 12-12h61.4c6.8 0 12 5.2 12 12v10.3c0 6.8-5.2 12-12 12H80.2c-6.8 0-12-5.2-12-12zm12 29H290v51.2H34v-51.2h46.2zM34 452.3h256V495H34v-42.7zM307.3 495v-25.7h102.4V495H307.2z"/>
</svg>
