<svg xmlns="http://www.w3.org/2000/svg" viewBox="0 0 503.6 503.6">
  <path d="M495.2 241.7h-16.8c-14.2 0-25.2 11-25.2 25.2v43.6H339.6c-9.2-10.3-22.6-16.8-37.4-16.8-1.7 0-3.3 0-4.8.2l-30-30 97.7-97.8c3.5-3.4 3.5-8.4 0-11.8l-44.6-46-1.4-1.8c-.6-.5-1-1-1.7-1.3l-42.8-44c-1.7-1.7-3.4-2.5-6-2.5-2.4 0-4 .8-5.8 2.5L23.5 294.6c-1.7 1.7-2.5 3.4-2.5 6 0 2.4.8 4 2.5 5.8l6 5.8-17 16.8c-1.6 1.7-2.4 3.4-2.4 6s1 4 2.6 5.8L19 347 2.4 363.5c-3.3 3.4-3.3 8.4 0 11.8l48 47.8c1.5 1.7 3.2 2.5 5.7 2.5 1.7 0 4.2-.8 5-2.5l17-16.8 5.7 6c1.6 1.6 3.3 2.4 5.8 2.4s5-.8 6-2.5l16.7-16.7 5.8 6c1.7 1.6 3.4 2.4 6 2.4s4-.8 5.8-2.5l90.3-90.2 31.5 31.5v1.6c0 27.8 22.7 50.5 50.4 50.5 14.8 0 28.2-6.5 37.4-16.8h113.6v42c0 14.2 11 25.2 25.2 25.2h16.8c5 0 8.4-3.5 8.4-8.5V250c0-5-3.4-8.3-8.4-8.3zm-439.8 163L20 369.2l11-10 35.3 35.2-11 10zm34.4-10.2l-29.3-29.8-23.6-24-.8-.6-5-5 10-11 59.5 59.6-11 11zm34.4-11l-6-5.8L47 306.4l-6-6L268.7 79l32.6 33.6L283 131c-3.5 3.3-3.5 8.3 0 11.7 1.5 1.7 3.2 2.5 5.7 2.5 1.7 0 4.2-.8 6-2.5l18-18.2 11.7 12-29.8 29.7c-3.3 3.3-3.3 8.4 0 11.7 1.7 1.6 3.4 2.5 6 2.5 1.6 0 4-1 5.8-2.6l29.5-29.6 11.5 12-223.3 223.2zm108.3-84l23.5-23.4 23.2 23.4c-10 5.2-18.2 13.7-23 24l-23.7-23.8zm69.7 78.2c-18.5 0-33.6-15-33.6-33.6 0-13.4 8-25 19.7-30.4 2.3-1 4.7-1.8 7-2.2.6 0 1-.3 1.5-.4 1.7-.3 3.5-.4 5.4-.4 11.5 0 21.7 5.8 27.7 14.7 2.5 4 4.4 8.3 5.2 13v.4l.2.8v1l.2.5v7l-.2.7v.8l-.2.5c-.8 4.7-2.7 9-5.3 13-6 8.8-16.3 14.7-27.8 14.7zM350 361c1.7-5 3.4-11 3.4-17s-1.7-11.6-3.4-16.7h103.2V361H350zm136.8 67h-8.4c-5 0-8.4-3.3-8.4-8.3V267c0-5 3.4-8.5 8.4-8.5h8.4V428z"/>
</svg>
