<svg xmlns="http://www.w3.org/2000/svg" viewBox="0 0 512.5 512.5"><title>cocktail-2</title><path d="M276.5,304.7a54.2,54.2,0,0,1,15-37.2L400.8,153.1a5.5,5.5,0,0,0,1.2-6.6c-.6-2.4-3-3.6-5.4-3.6H316l13.4-37.2,57-17.4a5.3,5.3,0,0,0,4.2-7.2,5.3,5.3,0,0,0-7.2-4.2l-60,18a5.3,5.3,0,0,0-4.2,3.6l-16,44.4h-129a48,48,0,1,0-47.6,53.9,47.2,47.2,0,0,0,24.8-7L188,228.3l.3.3,37.2,39A54.3,54.3,0,0,1,240.5,302a6.7,6.7,0,0,0-.5,2.7v65.9c0,19.8-11.4,37.2-30,44.4l-25.8,10.2c-2.4,1.2-4.2,3.6-3.6,6.6a5.8,5.8,0,0,0,6,4.8h144c3,0,5.4-1.8,4.8-5.4s-1.2-5.4-3.6-6.6l-25.8-10.2a47.6,47.6,0,0,1-30-44.4V307.5A6.6,6.6,0,0,0,276.5,304.7ZM382.3,154.1l-40.5,42.4c-12.5-.5-24.8,4.2-34.5,13.3a39.5,39.5,0,0,1-19.6,9.9l23.6-65.6h71ZM274.9,219.5a20.9,20.9,0,0,1-12.5-9c-6.6-8.4-15.6-13.8-26.4-14.4s-24,4.8-33,13.8a53.4,53.4,0,0,1-9.2,6.5l-36.6-38.2a5.6,5.6,0,0,0-1-1.3l-22.2-22.8H298.5ZM126.3,184.8a36,36,0,1,1,35.4-42H120.3c-2.4,0-4.8,1.2-5.4,3.6a5.5,5.5,0,0,0-.6,2.6,5.8,5.8,0,0,0,1.8,4l26.3,27.6C137.6,183.6,132.3,184.8,126.3,184.8Zm111.5,77.9q-1.7-2.2-3.6-4.2l-31.7-33a36.6,36.6,0,0,0,9.5-7.1c6.6-7.2,15.6-10.8,24-10.2,6.6,0,13.2,3.6,17.4,9a33.6,33.6,0,0,0,17.7,13l-6.3,17.5a6.2,6.2,0,0,0,3.6,7.8,2.2,2.2,0,0,0,1.8.6c2.4,0,4.8-1.8,6-4.2l7.2-20c11.4-.1,23.3-4.9,33-13.5a37.5,37.5,0,0,1,12-7.8l-45.6,48a65.3,65.3,0,0,0-18,39.6H252.2a71.4,71.4,0,0,0-9.7-28.6q-1.4-2.3-3-4.6Zm62.7,161.4H215.8a61,61,0,0,0,36.5-54.4V310.5h12.4v59.2A58.4,58.4,0,0,0,300.6,424.2Z"/><circle cx="256.5" cy="256" r="235" fill="none" stroke="currentColor" stroke-miterlimit="10" stroke-width="16"/><line x1="90" y1="422.5" x2="423" y2="89.5" fill="none" stroke="currentColor" stroke-miterlimit="10" stroke-width="16"/></svg>
