<svg xmlns="http://www.w3.org/2000/svg" viewBox="0 0 503 512.5">
  <path d="M302.4 324.8a77 77 0 0 1 21.3-53L479 109a7.8 7.8 0 0 0 1.7-9.3c-1-3.4-4.3-5-7.7-5H358.5l19-53 81-24.7a7.6 7.6 0 0 0 6-10.2 7.6 7.6 0 0 0-10-6L369 26c-3.4 1-5 2.7-6 5.2l-22.7 63.2H156.8A68.3 68.3 0 1 0 89 171.2a67 67 0 0 0 35.4-10l52.2 54.8.4.5 53 55.5a77.3 77.3 0 0 1 21 49 9.5 9.5 0 0 0-.7 3.8v94c0 28-16.2 52.8-42.7 63L171 496.3c-3.4 1.7-6 5-5 9.4a8.3 8.3 0 0 0 8.4 6.8h204.8c4.3 0 7.7-2.6 6.8-7.7 1-4.3-1.7-7.7-5-9.4L344.2 481a67.8 67.8 0 0 1-42.7-63v-89a9.4 9.4 0 0 0 .8-4.2zm151-213.3L395.8 172c-17.8-1-35.3 6-49 19a56.2 56.2 0 0 1-28 14l33.5-93.5h101.2zm-152.8 93a29.8 29.8 0 0 1-17.8-12.8c-9.4-12-22.2-19.6-37.5-20.5s-34 6.8-47 19.6a76 76 0 0 1-13 9.3l-52-54.2a8 8 0 0 0-1.4-2l-31.7-32.3h234zM89 154a51.2 51.2 0 1 1 0-102.3c25.7 0 46.2 18.8 50.4 42.7H80.6c-3.4 0-6.8 1.7-7.7 5a8 8 0 0 0-1 4 8.2 8.2 0 0 0 2.6 5.5L112 148c-6.7 4.2-14.4 6-23 6zm159 112q-2.5-3.2-5.3-6l-45-47a52.2 52.2 0 0 0 13.4-10.3c9.5-10.2 22.3-15.4 34.2-14.5 9.4 0 18.8 5 24.7 12.8a47.8 47.8 0 0 0 25 18.6l-9 25c-1.6 4.2 1 9.3 5.2 11a3 3 0 0 0 2.6 1c3.4 0 6.8-2.7 8.5-6l10.4-28.6c16.3-.2 33-7 47-19.3a53.3 53.3 0 0 1 17-11l-65 68.2c-14.4 15.3-23.8 35-25.5 56.2h-18a101.7 101.7 0 0 0-13.6-40.7q-2-3.3-4.3-6.5zm87.8 229.5h-117c30-13.7 49.5-43.5 50.3-77.7v-84.5h17.2v84.5c0 34 18.8 64 49.5 77.7z"/>
  <path fill="#231f20" stroke="#fff" stroke-width="7" stroke-miterlimit="10" d="M15.5 493l472-473"/>
  <path fill="#231f20" d="M15.5 505A12 12 0 0 1 7 484.6l472-473a12 12 0 1 1 17 17l-472 473a12 12 0 0 1-8.5 3.4z"/>
  <path fill="#fff" d="M487.5 11.5a8.5 8.5 0 0 1 6 14.5l-472 473a8.5 8.5 0 1 1-12-12l472-473a8.5 8.5 0 0 1 6-2.5m0-7a15.4 15.4 0 0 0-11 4.6L4.5 482a15.5 15.5 0 1 0 22 22l472-473a15.5 15.5 0 0 0-11-26.4z"/>
</svg>
