<svg xmlns="http://www.w3.org/2000/svg" viewBox="0 0 512 512">
  <path d="M332.8 0H179.2C113.5 0 59.7 53.8 59.7 119.5V273c0 65.8 53.8 119.5 119.5 119.5h28.2c7.6 0 14.5 7 14.5 14.5v84.5c0 9.4 5.8 17 14.4 19.6 1.7 1 4.2 1 6 1 6.8 0 12.7-3.4 17-8.5l52-74.3c13.7-20.5 34.2-35 58-42.6 49.6-16.3 83-61.5 83-113.5V119.6C452.3 53.8 398.3 0 332.7 0zm102.4 274c0 44.3-28.2 83.5-70.8 97.2-27.3 9.4-50.4 25.6-66.6 48.6l-53 74.3c-.7 1.8-2.5 1-3.3 1-1-1-2.6-1-2.6-3.5V407c0-17-14.6-31.5-31.6-31.5h-28.2c-56.3 0-102.4-46-102.4-102.4V119.6C76.8 63 122.8 17 179.2 17h153.6c56.3 0 102.4 46 102.4 102.5V274z"/>
  <path d="M298.7 290H290V162c0-14.4-11-25.5-25.5-25.5h-34c-14.6 0-25.7 11-25.7 25.6 0 14.6 11 25.7 25.6 25.7h8.5V290h-8.6c-14.5 0-25.6 11.2-25.6 25.7s11 25.6 25.6 25.6h68.3c14.5 0 25.6-11 25.6-25.6 0-14.5-11-25.6-25.6-25.6zm0 34.3h-68.3c-5 0-8.5-3.4-8.5-8.6s3.3-8.5 8.4-8.5h17c5.2 0 8.6-3.4 8.6-8.5V179.2c0-5-3.4-8.5-8.5-8.5h-17c-5.2 0-8.6-3.4-8.6-8.6s3.3-8.4 8.4-8.4h34c4.4 0 8.7 3.4 8.7 8.5v136.7c0 5 3.5 8.5 8.6 8.5h17c5.2 0 8.6 3.4 8.6 8.5s-3.4 8.6-8.5 8.6zM256 119.5c18.8 0 34-15.4 34-34.2 0-18.7-15.2-34-34-34s-34 15.3-34 34c0 18.8 15.2 34.2 34 34.2zm0-51.2c9.4 0 17 7.6 17 17s-7.6 17-17 17-17-7.6-17-17 7.6-17 17-17z"/>
</svg>
