<svg xmlns="http://www.w3.org/2000/svg" viewBox="0 0 512 512">
  <path d="M507 314c-15.3-20.5-30.7-20.5-68.2-.8l-73.4 45.2c-10.2 6-33.3 7.7-54.6 7.7 4.3-7.6 2.5-17-5-28-13.8-19.7-36.8-31.7-61.6-31.7H211c-18 0-35-5-48.7-15.3-30.8-23-79 2-102.4 17v-18H0v222H60v-25.6h110.8c17 0 35-1.7 52-2.6l111-17c4.3 0 8.6-1 12-1.7 10.2-1.6 19.6-6.8 28-14.4l129-102.4c10.2-8.6 12-24 4.3-34.2zM43 495H17.2V307h25.6V495zm449.7-158L362.8 438l-.8.8c-6 5-12 8.5-18.8 9.4h-.8c-3.5 1-6 1-9.4 1l-112.7 17c-16.2 2.5-33.2 3.3-49.5 3.3h-111V328.5c20.6-14.5 68.4-41.8 92.3-23 16.3 12 37.6 18.8 59 18.8H244c19.7 0 37.6 8.5 48.7 25.6 3.3 5 4 10 3.3 11.8-2.6 4.3-12.8 6-24 6.8h-86.1c-26.5 0-42.7 12.8-42.7 34.2 0 5 3.4 8.5 8.6 8.5 5.2 0 8.6-3.4 8.6-8.5 0-4.3 0-17 25.6-17h91.3c40 .8 77.7 0 97.3-10.3l73.4-45.3c35.8-18 39.2-13.6 46-3.4 1.8 2.6 1.8 7.7-1.7 10.3zM66.7 269.7c1.7 1.7 4.3 3.4 7 3.4h365c3.5 0 6-1.6 7-4.2l30.6-42.7c1.7-2.4 2.6-5.8 1-8.4s-4.4-4.3-7.8-4.3h-17.3C448 111.7 366.2 30 264.7 25.8V17h17c5.2 0 8.6-3.3 8.6-8.5S287 0 281.8 0h-51.2c-5 0-8.6 3.4-8.6 8.5s3.5 8.6 8.6 8.6h17V26C146 30 64.6 111.8 60 213.3H43c-3.4 0-6.8 2.6-7.6 5.2s-1 6 .8 8.5l30.7 42.7zm189.5-227c96.4 0 175 76 179.2 170.6H77c5-94.7 83.6-170.6 179.2-170.6zM68.4 230.4h383.9l-18 25.6H78l-18-25.6h8.6z"/>
  <path d="M256.2 59.7c-57.2 0-111 30.8-140.8 81-1.7 4.4-1 9.5 3.4 12 1.7 1 2.5 1 4.3 1 3.5 0 6-1.8 7.7-4.4C156.3 105 205 76.8 256.2 76.8c5 0 8.5-3.4 8.5-8.5s-3.4-8.6-8.5-8.6z"/>
</svg>
