<svg xmlns="http://www.w3.org/2000/svg" viewBox="0 0 503.6 503.6"><path d="M495.2 235h-58.7v-16.8c0-5-3.4-8.4-8.4-8.4V193c5 0 8.5-3.3 8.5-8.3 0-32.8-26-58.8-58.8-58.8S319 152 319 184.6c0 5 3.3 8.3 8.3 8.3v16.8c-5 0-8.3 3.4-8.3 8.4V235H219v-50.3c0-24.4-11.7-47-31.8-61.3-3.4-1.7-7.6-1.7-10 0-20.2 14.3-48 14.3-68 0-3.4-1.7-7.6-1.7-10.2 0-20 14.3-32 37-32 61.3V235H8.5c-5 0-8.4 3.4-8.4 8.4v50.4c0 5 3.4 8.4 8.4 8.4v176.2c0 14.3 11 25.2 25.2 25.2H470c14.3 0 25.2-11 25.2-25.2V302.2c5 0 8.4-3.4 8.4-8.4v-50.4c0-5-3.4-8.4-8.4-8.4zm-117.5-92.3c20 0 37 14.3 41 33.6h-82c4-19.3 21-33.6 41-33.6zM344 193h67.3v16.8H344V193zm-8.3 33.6h84v8.4h-84v-8.4zm-193-72.2l14.3 15-14.3 24.5-14.3-24.5 14.3-15zM84 184.7c0-16.8 7.5-32.8 20-44.5 6.6 4 13.6 6.8 21 8.5L111.5 162c-3.3 2.5-3.3 6.7-1.6 10l25 42c1.8 2.6 4.3 4.2 7.7 4.2s6-1.6 7.5-4.2l25.2-42c1.7-3.3 1-7.5-1.7-10l-13.2-13.3c7.3-1.7 14.3-4.6 20.8-8.5 12.6 11.7 20 27.7 20 44.5V235H84v-50.3zm-67.2 67H487v33.7h-470v-33.6zm461.6 168H428c-5 0-8.3 3.3-8.3 8.4 0 5 3.3 8.5 8.4 8.5h50.4v16.7H428c-5 0-8.3 3.4-8.3 8.4s3.3 8.4 8.4 8.4h50.4v8.4c0 5-3.3 8.4-8.4 8.4H33.6c-5 0-8.4-3.3-8.4-8.4V470h50.3c5 0 8.4-3.3 8.4-8.4s-3.4-8.4-8.5-8.4H25.2v-16.7h50.3c5 0 8.4-3.4 8.4-8.4s-3.4-8.3-8.5-8.3H25.2V302.2h453.2v117.5zM142.7 117.5c32.7 0 58.7-26 58.7-58.7 0-32.8-26-58.8-58.7-58.8S84 26 84 58.8c0 32.7 26 58.7 58.7 58.7zm0-100.7c23.5 0 42 18.5 42 42s-18.5 42-42 42-42-18.5-42-42 18.5-42 42-42z"/><path d="M243.4 470c42 0 75.6-33.5 75.6-75.5S285.4 319 243.4 319 168 352.5 168 394.5s33.4 75.5 75.4 75.5zm0-134.3c32.7 0 58.8 26 58.8 58.8s-26 58.7-58.8 58.7-58.7-26-58.7-58.7 26-58.8 58.7-58.8z"/><path d="M243.4 436.5c5 0 8.4-3.4 8.4-8.4s-3.4-8.3-8.4-8.3c-14.3 0-25.2-11-25.2-25.2 0-5-3.3-8.4-8.4-8.4s-8.4 3.5-8.4 8.5c0 23.5 18.5 42 42 42zM243.4 369.3c14.3 0 25.2 11 25.2 25.2 0 5 3.3 8.4 8.4 8.4s8.4-3.5 8.4-8.5c0-23.5-18.5-42-42-42-5 0-8.4 3.4-8.4 8.4s3.4 8.3 8.4 8.3z"/></svg>