<svg xmlns="http://www.w3.org/2000/svg" viewBox="0 0 512 512">
  <path d="M366.8 144.2c-9.4-9.4-26.4-9.4-35.8 0l-36 36c-5 4-7.5 11-7.5 17.8s2.5 12.8 7.6 18l60.7 60.5c5.2 5 11 7.7 18 7.7 6 0 12.8-2.6 18-7.7l35.7-36c5-4 7.7-11 7.7-17.8s-2.5-12.8-7.6-18l-60.6-60.5zm48.7 85.3l-36 36c-3.3 3.3-8.4 3.3-11.8 0L307 204.7c-1.6-1.7-2.5-3.4-2.5-6s1-4.2 2.6-6l36-36.6c1.6-1.7 3.3-2.6 6-2.6s5 1 6 3.4l60.5 60.6c1.7 1.7 2.5 3.4 2.5 6s-.8 4.2-2.5 6z"/>
  <path d="M349.8 187c-3.5-3.5-8.6-3.5-12 0s-3.4 8.4 0 11.8l36 36c1.6 1.6 3.3 2.4 5.8 2.4 1.7 0 4.3-.8 6-2.5 3.4-3.4 3.4-8.6 0-12L349.8 187z"/>
  <path d="M452.2 180L337 65c-11-11-25.4-16.8-40-17.4C284 20.3 258.8 0 221.8 0c-35 0-59.3 18-72.8 42.8h-4c-56.4 0-102.4 46-102.4 102.3 0 37.8 20.6 71 51.2 88.7v82c0 2.6.8 4.3 2.5 6l11 11-11 11.2c-3.4 3.3-3.4 8.4 0 11.8l11 11-11 11.2c-3.4 3.4-3.4 8.6 0 12l11 11-11 11.2c-1.7 1.7-2.5 3.4-2.5 6s.8 4.2 2.5 6l11 11-11 11c-3.4 3.5-3.4 8.6 0 12l11 11-11 11.2c-3.4 3.4-3.4 8.6 0 12l17 17c1.8 1.7 3.5 2.6 6 2.6H154c4-.2 7-2.7 8.4-6.5l32-48c1-1.8 1.8-3.5 1.8-5.2V233.7c14-8 25.7-19.4 34.5-32.8l101 100.2c11.2 11 26.6 17 42 17s30.7-5 42.6-17.8l36-36c23-23 23-61.3 0-84.3zm-136.6-69c0 9.3-7.7 17-17 17s-17-7.7-17-17c0-6.4 3.4-12 8.7-15 .8 4 4 6.4 8.3 6.4S306 100 307 96c5 3 8.6 8.6 8.6 15zm-93.8-94c27.5 0 46.2 14 57 32.7-9.7 2.6-18.8 7.7-26.3 15.2l-23 22.7c-14.2-21-36.3-36.7-62-42.5 11-16.5 29-28 54.3-28zm-85 79c.7 4 3.8 6.4 8.2 6.4s7.4-2.5 8.3-6.4c5.2 3 8.7 8.6 8.7 15 0 9.3-7.7 17-17 17s-17-7.7-17-17c0-6.4 3.4-12 8.7-15zM114 486.4l11-11c3.5-3.5 3.5-8.6 0-12l-11-11 11-11.2c1.8-1.7 2.7-3.4 2.7-6s-1-4.3-2.7-6l-11-11 11-11.2c3.4-3.4 3.4-8.5 0-12l-11-11 11-11c3.4-3.5 3.4-8.6 0-12l-11-11 11-11.2c1.7-1.7 2.6-3.4 2.6-6s-1-4.3-2.7-6l-14.5-14.5v-70.7c1.3.4 2.6 1 3.8 1.3 10 3 19.8 4.5 30.4 4.5V495h-22.2l-8.6-8.6zm65-36.7L162.8 474V246c5.5-1 11-2.6 16-4.4v208zm6-229.5c-.6.2-1.2.4-1.8.8-1.8 1-3.6 2-5.4 2.7-10.2 4.3-21.3 6.7-33 6.7-2.6 0-5.2 0-7.7-.4-10.7-1-21-4-30.7-9-.8-.5-1.5-.8-2.3-1-26.6-14.5-44.7-42.7-44.7-75 0-45.8 36.7-83.5 82-85.2-1.8 5.8-3 11.8-4 17.8-15.3 3.4-26.8 17-26.8 33.3 0 18.7 15.4 34 34.2 34s34-15.3 34-34c0-15.4-10.2-28.5-24.2-32.7 1-6 2.5-11.7 4.6-17.3 40 7 70.7 42 71 83.7v1.7l-.2.5c-.4 12.6-3.7 24.5-9.3 35.6-.5 1-.8 1.8-1 2.8-8 14.7-20 27-34.7 34.8zm254.2 33.2l-36 36c-17 16-44.3 16-60.5 0l-104-104c2.5-5.6 4.4-11.5 5.8-17.5v-.5l.5-2 .3-1.3c0-.5 0-1 .2-1.3v-1c1-5.4 1.6-11 1.6-17v-.3-.5c0-14.5-2.6-28-8.6-41l25.6-25.5c6.2-6 13.7-9.6 21.6-11.3 1.2 4 2 8 2.7 12-14 4-24.3 17.2-24.3 32.5 0 18.7 15.4 34 34.2 34 18.7 0 34-15.3 34-34 0-16.3-11.4-30-26.7-33.4-.6-3.8-1.4-7.5-2.3-11.2 8 1.5 15.4 5.3 21.3 11.3l114.4 116c8.5 7.7 12.8 18.8 12.8 30s-5.2 22-12.8 29.7z"/>
</svg>
