<svg xmlns="http://www.w3.org/2000/svg" viewBox="0 0 503.6 503.6">
  <path d="M478.4 117.5H25.2C11 117.5 0 128.5 0 142.7V361c0 14.2 11 25 25.2 25h453.2c14.3 0 25.2-10.8 25.2-25V142.5c0-14.2-11-25-25.2-25zm8.4 184.7h-8.4c0-5-3.3-8.4-8.4-8.4s-8.4 3.3-8.4 8.4V319c0 5 3.4 8.3 8.4 8.3s8.4-3.3 8.4-8.3h8.4v16.7H470c-14.2 0-25-11-25-25s10.8-25.3 25-25.3h16.8v16.8zm0-117.5h-8.4c0-5-3.3-8.4-8.4-8.4s-8.4 3.3-8.4 8.4v16.7c0 5 3.4 8.4 8.4 8.4s8.4-3.3 8.4-8.4h8.4v16.8H470c-14.2 0-25-11-25-25s10.8-25.3 25-25.3h16.8v16.7zm-8.4 184.6H25.2c-5 0-8.4-3.3-8.4-8.4V142.6c0-5 4.2-8.4 8.4-8.4h453.2c5 0 8.4 3.4 8.4 8.4v8.4H470c-23.5 0-42 18.5-42 42s18.5 42 42 42h16.8v33.6H470c-23.5 0-42 18.5-42 42s18.5 42 42 42h16.8v8.3c0 5-3.3 8.3-8.4 8.3z"/>
  <path d="M302.2 176.3H84c-14.3 0-25.2 11-25.2 25v101c0 14 11 25 25 25h218.4c14.2 0 25-11 25-25v-101c0-14-10.8-25-25-25zm8.4 126c0 5-3.4 8.3-8.4 8.3H84c-5 0-8.5-3.4-8.5-8.4V201.4c0-5 4.2-8.3 8.4-8.3H302c5 0 8.4 3.4 8.4 8.4v100.8z"/>
  <path d="M151 209.8h-50.3c-5 0-8.4 3.4-8.4 8.4v67.2c0 5 3.4 8.4 8.4 8.4H151c5 0 8.5-3.4 8.5-8.4v-67.2c0-5-3.4-8.4-8.4-8.4zm-8.3 67.2H109v-50.4h33.7V277zM201.4 209.8h-16.7c-5 0-8.4 3.4-8.4 8.4s3.3 8.4 8.4 8.4h16.7c5 0 8.4-3.3 8.4-8.4s-3.3-8.4-8.4-8.4zM243.4 209.8h-16.8c-5 0-8.4 3.4-8.4 8.4s3.4 8.4 8.4 8.4h16.8c5 0 8.4-3.3 8.4-8.4s-3.4-8.4-8.4-8.4zM285.4 209.8h-16.8c-5 0-8.4 3.4-8.4 8.4s3.4 8.4 8.4 8.4h16.8c5 0 8.4-3.3 8.4-8.4s-3.4-8.4-8.4-8.4zM201.4 243.4h-16.7c-5 0-8.4 3.4-8.4 8.4s3.3 8.4 8.4 8.4h16.7c5 0 8.4-3.4 8.4-8.4s-3.3-8.4-8.4-8.4zM243.4 243.4h-16.8c-5 0-8.4 3.4-8.4 8.4s3.4 8.4 8.4 8.4h16.8c5 0 8.4-3.4 8.4-8.4s-3.4-8.4-8.4-8.4zM285.4 243.4h-16.8c-5 0-8.4 3.4-8.4 8.4s3.4 8.4 8.4 8.4h16.8c5 0 8.4-3.4 8.4-8.4s-3.4-8.4-8.4-8.4zM201.4 277h-16.7c-5 0-8.4 3.3-8.4 8.4s3.3 8.4 8.4 8.4h16.7c5 0 8.4-3.4 8.4-8.4s-3.3-8.4-8.4-8.4zM243.4 277h-16.8c-5 0-8.4 3.3-8.4 8.4s3.4 8.4 8.4 8.4h16.8c5 0 8.4-3.4 8.4-8.4s-3.4-8.4-8.4-8.4zM285.4 277h-16.8c-5 0-8.4 3.3-8.4 8.4s3.4 8.4 8.4 8.4h16.8c5 0 8.4-3.4 8.4-8.4s-3.4-8.4-8.4-8.4z"/>
</svg>
