<svg xmlns="http://www.w3.org/2000/svg" viewBox="0 0 512 512">
  <path d="M128 0C62.3 0 8.5 53.8 8.5 119.5v110.8c0 11.6 7 21 17 24.3v155C25.6 466 71.8 512 128 512s102.4-46 102.4-102.4v-155c10-3.4 17-12.7 17-24.2v-111C247.5 54 193.8 0 128 0zm85.3 409.6c0 47-38.4 85.3-85.3 85.3-47 0-85.3-38.5-85.3-85.4V256h170.6v153.6zm17-179.2c0 5-3.3 8.5-8.4 8.5H34c-5 0-8.4-3.5-8.4-8.6v-25.6h204.8v25.6zm0-42.7H25.7v-68.2C25.6 63 71.6 17 128 17s102.4 46 102.4 102.5v68.2zM384 0c-65.7 0-119.5 53.8-119.5 119.5v110.8c0 11.6 7 21 17 24.3v155C281.6 466 327.8 512 384 512s102.4-46 102.4-102.4v-155c10-3.4 17-12.7 17-24.2v-111C503.5 54 449.8 0 384 0zm0 17c56.3 0 102.4 46 102.4 102.5v68.2H281.6v-68.2C281.6 63 327.6 17 384 17zm85.3 392.6c0 47-38.4 85.3-85.3 85.3s-85.3-38.5-85.3-85.4V256h170.6v153.6zm17-179.2c0 5-3.3 8.5-8.4 8.5H290c-5 0-8.4-3.5-8.4-8.6v-25.6h204.8v25.6z"/>
</svg>
