<svg xmlns="http://www.w3.org/2000/svg" viewBox="0 0 503.6 503.6">
  <path d="M470 117.4H267.2l59.3-95.7c2.5-4.2 1.7-9.2-2.5-11.7-4.2-2.6-9.2-1.7-11.8 2.5L251.7 110 183 11.7c-2.5-3.3-7.6-4.2-11.8-1.6-3.3 2.5-4.2 7.5-1.7 11.7l66.8 95.7H33.6C15 117.4 0 132.4 0 151v285.4C0 454.8 15 470 33.6 470H42v16.7c0 5 3.3 8.4 8.4 8.4s8.4-3.3 8.4-8.3V470h386v16.7c0 5 3.4 8.4 8.4 8.4s8.4-3.3 8.4-8.3V470h8.4c18.5 0 33.6-15.2 33.6-33.6V151c0-18.5-15-33.6-33.6-33.6zm16.8 319c0 9.2-7.5 16.7-16.8 16.7H33.6c-9.3 0-16.8-7.4-16.8-16.6V151c0-9.3 7.5-16.8 16.8-16.8H470c9.3 0 16.8 7.5 16.8 16.8v285.4z"/>
  <path d="M319 151H84c-27.8 0-50.4 22.6-50.4 50.3V386c0 27.7 22.6 50.4 50.3 50.4h235c27.6 0 50.3-22.7 50.3-50.4V201.3c0-27.7-22.7-50.3-50.3-50.3zm33.5 235c0 18.5-15 33.6-33.5 33.6H84c-18.5 0-33.6-15-33.6-33.6V201.3c0-18.4 15-33.5 33.5-33.5h235c18.4 0 33.5 15 33.5 33.5V386zM461.6 193h-67c-5 0-8.5 3.3-8.5 8.3s3.5 8.4 8.5 8.4h67c5.2 0 8.5-3.3 8.5-8.4s-3.3-8.4-8.4-8.4zM461.6 226.5h-67c-5 0-8.5 3.4-8.5 8.4s3.5 8.3 8.5 8.3h67c5.2 0 8.5-3.4 8.5-8.4s-3.3-8.5-8.4-8.5zM461.6 260h-67c-5 0-8.5 3.4-8.5 8.5s3.5 8.4 8.5 8.4h67c5.2 0 8.5-3.5 8.5-8.5s-3.3-8.4-8.4-8.4zM461.6 293.7h-67c-5 0-8.5 3.3-8.5 8.4v67.2c0 5 3.5 8.4 8.5 8.4h67c5.2 0 8.5-3.4 8.5-8.4v-67c0-5.2-3.3-8.5-8.4-8.5zm-8.4 67H403v-50.3H453v50.4z"/>
  <path d="M103.2 187l-33.5 33.6c-3.4 3.4-3.4 8.4 0 11.8 1.6 1.7 3.3 2.5 5.8 2.5 2.6 0 4.2-1 6-2.6l33.5-33.6c3.3-3.3 3.3-8.4 0-11.7-3.4-3.3-8.4-3.3-11.8 0zM78 254.2l-8.3 8.4c-3.4 3.4-3.4 8.4 0 11.8 1.6 1.6 3.3 2.5 5.8 2.5 2.6 0 4.2-1 6-2.6l8.3-8.4c3.4-3.4 3.4-8.4 0-11.8-3.3-3.3-8.4-3.3-11.7 0zM153.6 178.7L128.4 204c-3.3 3.2-3.3 8.2 0 11.6 1.7 1.7 3.4 2.5 6 2.5 2.4 0 4-.7 5.8-2.4l25-25.2c3.5-3.3 3.5-8.4.2-11.7s-8.4-3.4-11.8 0zM109 226.5c-5 0-8.3 3.4-8.3 8.4s3.4 8.3 8.4 8.3 8.5-3.4 8.5-8.4-3.3-8.5-8.4-8.5z"/>
</svg>
