<svg xmlns="http://www.w3.org/2000/svg" viewBox="0 0 512 512">
  <path d="M478 76.8c-16 0-29.4 11-33.2 25.6h-18v-17c0-19.7-14.6-34.2-34.3-34.2h-273c-18.8 0-34.2 12.8-34.2 29v22.2h-18C63.2 87.7 50 76.8 34 76.8c-18.6 0-34 15.4-34 34 0 19 15.4 34.3 34 34.3 16 0 29.4-11 33.2-25.5h18v315.7c0 14.5 11.2 25.6 25.7 25.6h239c14.4 0 25.5-11 25.5-25.6v-8.5H401c14.6 0 25.7-11 25.7-25.6V119.6h18C448.8 134 462 145 478 145c18.6 0 34-15.3 34-34 0-18.8-15.4-34.2-34-34.2zM34 128c-9.3 0-17-7.7-17-17 0-9.5 7.7-17 17-17 9.5 0 17.2 7.5 17.2 17 0 9.3-7.7 17-17 17zm375.6-42.7v17h-34v-17c0-6.8 7.5-17 17-17 10.2 0 17 6.8 17 17zm-307.2-5c0-7 7.7-12 17-12h244c-3 4.6-4.7 10-5 15.4v291.8h-256V80.2zm256 355c0 5-3.4 8.4-8.5 8.4H111c-5.2 0-8.6-3.4-8.6-8.5v-42.7h256v42.8zm51.2-34.2c0 5.2-3.4 8.6-8.5 8.6h-25.5V119.5h34V401zM478 128c-9.5 0-17.2-7.7-17.2-17 0-9.5 7.7-17 17-17s17 7.5 17 17c0 9.3-7.5 17-17 17z"/>
</svg>
