<svg xmlns="http://www.w3.org/2000/svg" viewBox="0 0 512 512"><path d="M160 363.5l-4.3 34.2c-.8 7.6 1 15.3 6 20.4 4.3 5.3 11 8.7 18.8 8.7h29.8c7.7 0 16.3-2.6 20.5-8.6s7-12.7 6-20.3l-4.3-34.2c-1.7-12.8-12.8-22.2-25.6-22.2h-21.4c-12.8 0-24 9.4-25.6 22.2zm55.5 2.6l4.2 34.2c1 2.6 0 5-1.7 6.8s-4.2 2.6-6.8 2.6h-30c-2.4 0-5-1-6.7-2.6s-1.7-4.2-1.7-6.8l4.3-34c1-4.4 4.3-7.8 8.6-7.8H207c4.2 0 7.6 3.4 8.5 7.7zM153.2 281.6h42.6c5.2 0 8.6-3.4 8.6-8.5 0-5-3.4-8.5-8.6-8.5h-42.6c-5 0-8.6 3.4-8.6 8.6 0 5.2 3.5 8.6 8.6 8.6zM230 281.6h8.5c5 0 8.5-3.4 8.5-8.5 0-5-3.4-8.5-8.5-8.5H230c-5 0-8.6 3.4-8.6 8.6 0 5.2 3.5 8.6 8.6 8.6z"/><path d="M395.5 443.7h-4.2c.5-2.7.8-5.6.8-8.5v-17c0-5.2-3.3-8.6-8.4-8.6H375V102.4C375 46 329 0 272.6 0S170.2 46 170.2 102.4v51.2c-5 0-8.5 3.4-8.5 8.5v32.2c-36 14.3-59.7 48.6-59.7 87.4V384h-8.6c-14.5 0-25.6 11-25.6 25.6v59.7c0 14.5 11 25.6 25.6 25.6h10c3.3 10 12.7 17 24.2 17H434.8c5 0 8.5-3.4 9.4-8.5V489c0-24.8-22.2-45.3-48.7-45.3zm-47.8 17C339 460 332 455.2 328 448c-.5-1-1.2-1.7-2-2.4-1.4-3-2.2-6.7-2.2-10.4v-8.5H375v8.5c0 4.4-1 8.5-2.8 12l-.6.8c-4.8 7.2-11.8 12-20.4 12.7h-3.5zM195.7 222c-9.2 0-17-7.8-17-17.2v-34H213V203c0 10.2-7.5 17.7-16 18.8H196zm25.7-68.4v-51.2c0-28.2 23-51.2 51.2-51.2s51.2 23 51.2 51.2v307.2c0-14.5-11-25.6-25.6-25.6h-8.5V281.6c0-38.8-23.8-73-59.7-87.4v-32c0-5.2-3.4-8.6-8.6-8.6zm74.3 290h-6v-42.5h8.5c5.2 0 8.6 3.5 8.6 8.6v34.2h-11.1zM187.3 102.5c0-47 38.4-85.3 85.3-85.3S358 55.6 358 102.5v307.2h-17V102.4C341 65 310 34 272.5 34c-37.5 0-68.2 31-68.2 68.4v51.2h-17v-51.2zM85 469.4v-59.8c0-5 3.3-8.5 8.4-8.5h8.6v77h-8.6c-5 0-8.5-3.5-8.5-8.7zm34 17V281.6c0-30 17-56.3 43.6-69v.4c1 4 2.7 7.5 5 10.8 1.2 2.2 2.7 4 4.3 5.7 6.8 7 16.2 10.3 25.5 9.4 3-.2 5.7-.7 8.4-1.6 8.7-2.7 16-9 20-17 .2 0 .3-.3.4-.4l.3-.7.5-1v-.3c1-1.8 1.5-3.6 2-5.5 26.4 12 43.4 39.2 43.4 69V455l-1.7 1.5-1 .7c-7 6.4-11.5 14.4-13.4 23v.2l-.4 1.8c0 .4 0 .7-.2 1 0 .5 0 1-.2 1.3v1.5c0 .3 0 .5-.2.8v8.4h-17v-10.3c0-12.8-10.3-24-24-24H177c-12.7 0-23.8 10.3-23.8 24V495h-25.6c-5 0-8.6-3.5-8.6-8.6zm51.2 8.5v-10.3c0-3.4 2.6-6.8 7-6.8h37.4c3.4 0 6.8 2.4 6.8 6.7V495h-51.2zm256 0H272.6v-6c0-15.4 14.5-28.2 31.6-28.2h11c7.6 10.4 20 17 34.2 17s26.7-6.6 34.4-17h11c17 0 31.4 12.8 31.4 28.2v6z"/></svg>