<svg xmlns="http://www.w3.org/2000/svg" viewBox="0 0 512 512">
  <path d="M256 324.3c-18.8 0-34 15.3-34 34 0 19 15.2 34.2 34 34.2s34-15.3 34-34c0-19-15.2-34.2-34-34.2zm0 51.2c-9.4 0-17-7.7-17-17s7.6-17.2 17-17.2 17 7.7 17 17-7.6 17.2-17 17.2z"/>
  <path d="M257 257c-27.5 0-53 10-72.7 29.7-1.7 1.7-2.5 3.4-2.5 6s.8 4.3 2.5 6l24 24c1.6 1.6 3.3 2.4 6 2.4 1.6 0 4.2-1.6 6-2.4 9.2-10.3 22-15.4 35.7-15.4s26.5 5 37.5 15.4c3.5 3.4 8.6 3.4 12 0l24-24c1.6-1.6 2.4-3.3 2.4-6s-1-4.2-2.6-6C309.8 267.2 284.2 257 257 257zm40.8 47.6c-12-9.3-26.4-14.5-41.8-14.5s-30 5.3-41.8 14.6l-12-12c15.4-12.7 34.2-19.5 53.8-19.5s38.4 7 53.8 19.7l-12 12z"/>
  <path d="M256 187.7c-45.2 0-88 18-120.3 50.4-3.4 3.5-3.4 8.6 0 12l24 24c1.6 1.6 3.3 2.5 5.8 2.5s4.3-1 6-2.6c23-22.3 53-35 84.5-35 31.6 0 62.3 12.7 84.5 35 1.7 1.6 3.4 2.5 6 2.5 2.5 0 4.2-1 6-2.6l23.8-24c3.4-3.4 3.4-8.5 0-12-31.6-32.3-75-50.3-120.3-50.3zm90.5 68.3c-24.8-22.2-57.2-34-90.5-34s-65 11.8-90.5 34l-12-12C182 218.6 217.6 205 256 205c38.4 0 74.2 13.7 102.4 39.3l-12 12z"/>
  <path d="M425 189.4c-45.3-45.2-105-70-169-70s-123.7 24.8-168 71c-3.5 3.3-3.5 8.4 0 11.8l23.8 24c3.4 3.3 8.5 3.3 12 0 35-36 82-55.5 132.2-55.5s97.3 19.6 133 54.6c1.8 1.7 3.5 2.5 6 2.5 1.8 0 4.4-.8 6-1.7l24-24.6c3.4-3.4 3.4-8.5 0-12zm-30.8 18c-37.5-35-86-53.8-138.2-53.8s-100.7 18.8-139 53.8l-12-12c41.8-37.5 94.7-59 151-59s109.2 21.5 150.2 59l-12 12z"/>
  <path d="M256 0C115.2 0 0 115.2 0 256s115.2 256 256 256 256-115.2 256-256S396.8 0 256 0zm0 495C124.6 495 17 387.3 17 256S124.7 17 256 17s239 107.6 239 239-107.6 239-239 239z"/>
</svg>
