<svg xmlns="http://www.w3.org/2000/svg" xmlns:xlink="http://www.w3.org/1999/xlink" viewBox="0 0 512 512"><defs><mask id="a" x="-80.5" y="13.3" width="512" height="512" maskUnits="userSpaceOnUse"><path d="M-80.5,13.3h512v512h-512Z" fill="#fff"/><path d="M83.5,222.3s5.8-35.7,34.8-57.5c0,0,47,32,119,.7,0,0,26.7,12.5,36,57.2,0,0,5.4-46-15.4-74.4,0,0-3.8-18.6-34.7-33.7l-11.5,7s-7.5-9.6-27.3-20.8c0,0-13.4,7-21,18.2l-12.7-8s-15.3,7-25.3,21l-17,2.6-9,16.2S81,165.3,83,222.9l.4-.5Z"/></mask></defs><title>people</title><path d="M478,423.3c-17.5,76-106.6,46.3-137,33.7-30.4,12.6-119.5,42.4-137-33.7,0,0,31.3.3,22-97.6,0,0-34-194,115-177.8v.2c149-16.2,115,177.8,115,177.8-9.3,97.8,22,97.5,22,97.5Z" fill="#3b434f"/><path d="M217.6,515.9s-5.7-76.8,66.6-84h32.4v-15s22.8,10,46,1.2l.6,13.8h38s64.8,2.6,61.8,84.8l-245.5-1Z" fill="#fff"/><path d="M462.5,518.9H215l1-20c2.3-39.3,33.3-69,68.5-69h24.2a21.3,21.3,0,0,0-3.6,4H286.7c-34,0-63.8,28.7-66,66.5l-1,14h242l-.4-14c-2.2-37.7-32-66.6-66-66.6H376.7a20.5,20.5,0,0,0-3.2-4h24c35.3,0,66.2,30,68.4,69l1.3,20.2h-4.7Zm-96-85.2H365v-3.8h1.5ZM315,429.9h1.5v4h-1.2A21.5,21.5,0,0,0,315,429.9Z" fill="#3b434f"/><path d="M352.3,485.4a2.6,2.6,0,0,1,2.6,2.6h0a2.5,2.5,0,0,1-2.3,2.7h-.4a2.6,2.6,0,0,1-2.6-2.6h0a2.6,2.6,0,0,1,2.6-2.5Zm0,16.8a2.5,2.5,0,0,1,2.6,2.4q0,.1,0,.2a2.6,2.6,0,0,1-2.7,2.5h0a2.6,2.6,0,0,1-2.6-2.6h0a2.6,2.6,0,0,1,2.5-2.7h.1Z" fill="#3b434f"/><path d="M381.8,451.2l-18.6,27.7c-5-15.7-19.6-10-19.6-10v46.4a2.6,2.6,0,0,1-5.2-.1V468.9s-14.5-5.5-19.6,10l-18.5-27.6s-7.2-18.3,14.5-26.2v-8.4h4v26.5c.7,4.4,4,17.3,22.3,21.6,18.5-4.4,21.7-17.2,22.3-21.8V416.5h4V425c21.8,8,14.5,26,14.5,26Zm-63.2,2.6a32.2,32.2,0,0,1-2.6-4,36.3,36.3,0,0,1-1.3-6.7v-9.2c-.3-4.2-1-4.2-1-4.2-16.3,8-9,20.5-9,20.5l13.3,21c5.4-8.8,11-7.2,11-7.2a25.3,25.3,0,0,1-10.4-10Zm49.7-24s-1,0-1,4v9.3a34.3,34.3,0,0,1-1.5,6.6,26.4,26.4,0,0,1-2.3,3.8,25.4,25.4,0,0,1-10.4,10.4s5.8-1.7,11.2,7.3L377.7,450s7-12.5-9-20.5Z" fill="#3b434f"/><path d="M341.2,186.9c45.2,0,81,42.3,80,93.2l-1.3,54c-1.2,48-36.5,85.8-78.8,85.8s-77.7-37.8-78.5-85.8l-1.4-54c-1.2-51,34.6-93.2,80-93.2Z" fill="#fff"/><path d="M424.6,278.4l-1.2,56.3c-1.2,49.8-38,89-82.4,89s-81.3-39.4-82.4-89.3l-1.3-56.3c-1.3-53,36.2-97,83.6-97s84.8,44.2,83.5,97Zm-83.6-91c-44.7,0-80,41.7-78.8,92.2l1.2,53.8c1,47.5,35.7,85,77.5,85s76.4-37.6,77.6-85l1-53.7c1.4-50.4-34-92.4-78.6-92.4Z" fill="#3b434f"/><path d="M380.3,366.9c-6.6,5.7-21.5,11.2-39,11.2s-32.3-5.5-38.8-11.3c0,0-.7-2,.3-3a3.8,3.8,0,0,1,2.7-.8c6.6,5.8,18.6,10.5,36,10.5s29.4-4.7,36-10.4c0,0,1.8-.6,2.5.3a3,3,0,0,1,.5,3.4Zm-51,20h23.4v3.6H329.3ZM301,290.5a7.4,7.4,0,0,1,7.2,7.3,7.3,7.3,0,0,1-14.5,0,7.4,7.4,0,0,1,7.3-7.2Zm80.8,0a7.4,7.4,0,0,1,7.3,7.3,7.2,7.2,0,0,1-7.1,7.3h-.1a7.2,7.2,0,0,1-7.3-7.1h0a7.2,7.2,0,0,1,7.2-7.2h.1Z" fill="#3b434f"/><path d="M300.5,317.6c7,0,12.8.4,12.8,8.5s-5.7,8.3-12.8,8.3-12.8-1.5-12.8-8.4S293.5,317.6,300.5,317.6Zm84.5,0c7,0,12.8.4,12.8,8.5s-5.7,8.3-12.8,8.3-12.8-1.5-12.8-8.4S378,317.6,385,317.6Z" fill="#f5f3ef"/><path d="M360.6,277.4l2,2.6,1.4,1.8s23.2-12.8,39.3,2l1.7,1s-4-21.4-38.7-9Zm-40,0-2.2,2.7-1.3,1.7s-23-13-39.2,1.8l-1.7,1s4-21.4,38.8-9Zm98.3-31.2h15.3v36.4H419Z" fill="#3b434f"/><path d="M251.2,279.2s16-31,47-26c0,0,1,7,7.6,14.7,0,0,7.3-17.6,29.6-22.5,17.8-4,34.7-18,34.7-18s2.8,28,37.4,36c0,0,30.3,3.7,28.2-13s-19-89.7-99.6-78.6-99.5,40-85.4,106.6" fill="#3b444f"/><path d="M256.3,286.6a8,8,0,0,0-2.6-1.2,10.2,10.2,0,0,0-3-.7h-2l-2,.5a11,11,0,0,0-7,6.5,21,21,0,0,0-1.5,7.4v5l1,6a45.3,45.3,0,0,0,2,14.4c2.2,7.5,7.6,16.6,17.5,19.3-1.2-19-1.2-38.3-2.4-57.3Z" fill="#f7fbfb"/><path d="M258.2,287.3s-17-5.3-16.5,12.4c0,0,2.6,25.6,3.7,28,0,0,6.8,15,18,15.6v5S243.7,345.6,240,323l-3-20.4s-2.3-27.3,20.2-20.3l1,5" fill="#3b434f"/><path d="M252.7,322.9a2.7,2.7,0,0,1-3.6,0l-1.6-17.8s2.4-8.8,12.8-4.3l.3,5s-9-3.2-9,1l1.3,16Z" fill="#3b434f"/><path d="M425.3,286.7a5.8,5.8,0,0,1,2.6-1.3,10.3,10.3,0,0,1,3-.6h2l2,.3a11,11,0,0,1,7,6.6,20.6,20.6,0,0,1,1.4,7.3v5l-1,6a45.3,45.3,0,0,1-2,14.4c-2,7.3-7.6,16.5-17.5,19,1-18.8,1-38,2.3-57Z" fill="#f7fbfb"/><path d="M423.4,287.4s17.2-5.4,16.6,12.3c0,0-2.6,25.6-3.7,28.2,0,0-6.8,15-18,15.4v5s19.5-2.6,23.4-25l3-20.6s2.4-27-20.3-20.2l-1,5" fill="#3b434f"/><path d="M429,322.9a3,3,0,0,0,1.8,1,3.8,3.8,0,0,0,2-1l1.6-17.8s-2.4-8.8-12.8-4l-.3,5s9.2-3.2,9,1-1.2,16-1.2,16Zm-81.2-1.3H349c2.6,3.6,3.7,9,5,13.8a10,10,0,0,1-.3,5c-1.5,4-5.8,4-9.4,5.6a9,9,0,0,1-3,1.5c-.8-.7-1.6-1-2-2a2.3,2.3,0,0,1,1.4-2.7c1.1-.5,7.3-2,8-3.6a7.5,7.5,0,0,0,0-4.7c-1-2.6-1-4.7-2-6.8s-1.7-3.2-1-5a7,7,0,0,0,2-1Z" fill="#3b434f"/><path d="M36,515.3s-6.8-90,78-98.4h38V399.3s26.6,11.6,53.7,1.4l.8,16.2H251s76,3,72.4,99.3l-287.6-1Z" fill="#fff"/><path d="M324.2,518.9H34.2l1.3-23.6c2.7-46,39-81,80.3-81h31.7V419H118.3c-40,0-74.8,34-77.4,78l-1,16.4H323.4l-.4-16.5c-2.7-44-37.6-78-77.5-78H206.7v-4.6h41c41.5,0,77.7,35,80.4,81l1.4,23.6h-5.3Z" fill="#3b434f"/><path d="M177.2,467.3a41.5,41.5,0,0,1-41.4-41.4,39,39,0,0,1,1.7-11.5h12v4.7h-8.8a39.7,39.7,0,0,0-.6,7,37.2,37.2,0,0,0,74.3,0,39.7,39.7,0,0,0-.6-7H205v-4.8h12a44.5,44.5,0,0,1,1.6,11.6,41.3,41.3,0,0,1-41.2,41.4h-.2Z" fill="#3b434f"/><path d="M153,397.3v26.6a25,25,0,0,0,49.6,0v-26l4.2-1.3v27.3a29.3,29.3,0,1,1-58.6,0h0v-28l4.7,1.4Z" fill="#3b434f"/><path d="M178.7,129.9c53,0,95,49.5,93.6,109l-1.4,63.4c-1.4,56.2-42.7,100.5-92.3,100.5s-91-44.4-92-100.6L85,238.9C83.7,179.4,125.6,129.9,178.7,129.9Z" fill="#fff"/><path d="M276.5,236.9l-1.4,66c-1.3,58.4-44.5,104.4-96.5,104.4S83.3,361.1,82,302.7l-1.6-66c-1.5-62,42.4-113.5,98-113.5s99.6,51.7,98,113.7Zm-98-106.6c-52.4,0-93.7,49-92.3,108.2l1.4,63c1.2,55.6,41.8,99.6,90.8,99.6s89.6-44,91-99.7l1.3-62.8c1.5-59-40-108.3-92.2-108.3Z" fill="#3b434f"/><path d="M274,247.9l-4.3,70s-19,80.8-92.2,90.4h-1c-73-9.6-92-90.4-92-90.4l-4.2-70c19,84.4,35,89.7,35,89.7-3.2-25.6,23-23,23-23a330.2,330.2,0,0,0,39,4.4,334.5,334.5,0,0,0,38.7-4.4s26.3-2.5,23,23c0,0,16-5.2,35-89.5Zm-47.5,98.4c-1.3-15-10.3-13.8-10.3-13.8a281,281,0,0,1-38.7,8.7V341c-9.8-1.2-22.4-4-38.4-8.6,0,0-9-1-10,13.8,0,0-3.8,15,8.4,21.3l15.3,16.3s10.4,3.4,10.2-9.4c0,0-1-9.5,5-11h19c6,1.8,5,11.3,5,11.3,0,12.8,10.3,9.5,10.3,9.5l15.4-16.4c12.4-6.4,8.8-21.4,8.8-21.4Z" fill="#3b434f" opacity="0.1" style="isolation:isolate"/><path d="M168.3,369.1h20.4a1.7,1.7,0,0,1,1.7,1.7h0a1.7,1.7,0,0,1-1.8,1.6H168.2a1.6,1.6,0,0,1-1.7-1.7,1.7,1.7,0,0,1,1.6-1.8h.2Zm-18-20.4,2.4-3.3a52,52,0,0,0,26.5,7,54,54,0,0,0,26.7-7l2.4,3.4a59.3,59.3,0,0,1-29.2,7.5,58.3,58.3,0,0,1-29-7.6Z" fill="#3b434f"/><path d="M80.3,246.6a9.5,9.5,0,0,0-3-1.4,12,12,0,0,0-3.6-.8H71.5l-2.3.6a12.8,12.8,0,0,0-8.2,7.7,24.6,24.6,0,0,0-1.8,8.7v6l1,7a53,53,0,0,0,2.4,16.8c2.7,8.8,9,19.5,20.6,22.6-1.4-22.2-1.4-44.8-2.8-67Z" fill="#fff"/><path d="M81.5,247.5s-20-6.2-19.3,14.5c0,0,3,30,4.3,33,0,0,8,17.5,21,18.2v5.7s-23-3-27.3-29.6l-3.5-24s-2.7-32,23.7-23.8l1,6" fill="#3b434f"/><path d="M75,289.3a5,5,0,0,1-2,.8,5,5,0,0,1-2.2-.8l-2-21s2.8-10.3,15-5l.3,6s-10.6-3.7-10.4,1l1.5,19Z" fill="#3b434f"/><path d="M276.3,246.7a6.8,6.8,0,0,1,3-1.5,12,12,0,0,1,3.6-.7h2a10.3,10.3,0,0,1,2.5.5,12.7,12.7,0,0,1,8.2,7.8,24,24,0,0,1,1.8,8.7v5.8l-1,7.2a53,53,0,0,1-2.4,16.7c-2.5,8.6-9,19.3-20.5,22.4,1.4-22.2,1.4-44.8,2.8-67Z" fill="#fff"/><path d="M275,247.6s20.2-6.3,19.5,14.4c0,0-3,30-4.3,33,0,0-8,17.5-21,18l-.2,6s23-3,27.5-29.5l3.5-24s2.8-31.8-23.8-23.7l-1.2,6" fill="#3b434f"/><path d="M281.7,289.3a3.5,3.5,0,0,0,2,1,4.4,4.4,0,0,0,2.2-1l2-21s-3-10.3-15-4.8l-.5,6s10.8-3.8,10.6,1-1.3,18.8-1.3,18.8Zm-95.2-1.7h1.4c3,4.2,4.2,10.7,6,16.2a11.7,11.7,0,0,1-.6,6c-1.7,4.4-6.8,4.3-11,6.3a10.7,10.7,0,0,1-3.4,1.6c-1-1-2-1-2.5-2.4a2.6,2.6,0,0,1,1.6-3.2c1.2-.6,8.7-2.2,9.5-4.2a9.2,9.2,0,0,0,0-5.5c-1-3-1.3-5.5-2.4-8s-2-3.8-1.2-6a8.2,8.2,0,0,0,2.6-1ZM129,251.3a8.6,8.6,0,0,1,8.5,8.6,8.5,8.5,0,0,1-8.5,8.5h0a8.4,8.4,0,0,1-8.5-8.3h0a8.5,8.5,0,0,1,8.5-8.4Zm99.8,0a8.6,8.6,0,1,1,0,17,8.4,8.4,0,0,1-8.6-8.2h0a8.5,8.5,0,0,1,8.5-8.4Z" fill="#3b434f"/><path d="M230,282.9a10.7,10.7,0,1,1-10.5,10.9v-.2A10.6,10.6,0,0,1,230,282.9Zm-103,0a10.6,10.6,0,1,1-.3,0Z" fill="#edf1f1"/><path d="M205.8,239.7s25.7-14.6,43.7,1.6l5,.7s-6.2-22.4-51.3-8l1.3,4.4m1,0s26-15,43,4l9-.3s-11-24-56.3-9l4.3,6.4m-54.6.5s-25.5-14.6-43.7,1.4l-4.8.7s6-22.2,51-7.7l-1.2,4m-1,0s-26-14.7-43,4l-8.8-.3s11-23.8,56-8.8l-4.2,6" fill="#3b434f"/><path d="M83.3,242.9s3.2-51.5,35-74.3c0,0,45.8,31,117.8,0,0,0,32,14.5,36.8,74.2h1.7s9-68.5-14.5-95.6c0,0-5.8-20.8-36.7-36l-11,7s-7.7-9.1-27.4-20.3c0,0-14.8,6.4-22.3,18l-12-8s-16.7,7.8-26.5,21.4l-18,2.6-9.3,17s-22.5,18-15.5,92.4l1.8,1.7Z" fill="#3b434f"/><g mask="url(#a)"><path d="M86.2,243.3s4.4-48,32-71.7c0,0,46,31.6,118,.4,0,0,28.8,10.8,33.6,70.5l8,.5s9.3-68.8-14.4-96c0,0-8.5-23.8-39.4-38.8l-11.5,6.2s-7.3-8.6-27.2-20c0,0-15.5,5.7-23,17l-11.2-7s-18,8.4-27.6,22l-19,2.6-10,18.8S71.8,166.9,79,241.1l7,2.2Z" fill="#3b434f"/></g><path d="M179.5,116.9c.8.5.5,1,.3,1.6l-.6,2.6a25.8,25.8,0,0,0-.4,4v5l.2.8v1.2a1,1,0,0,1,.3.8,2.2,2.2,0,0,0,.3,1.4v.3l.4,1v.3a5.3,5.3,0,0,0,.4,1.6l.7,2.5.7,1.7a18.8,18.8,0,0,1,1.2,3l.7,1.6,2.5,5,1,1.4c0,.3.3.7.4,1a1,1,0,0,0,.3.5l.6,1.2.7,1,.8,1.2,1.4,2,1.5,2,3,4a3.2,3.2,0,0,1,1,1l.5.5v1.6a2.6,2.6,0,0,1-.4,1l-.3.4h-.3a1.8,1.8,0,0,1-1,.6,1.6,1.6,0,0,1-1-.5l-1.4-1.3c0-.2-.2-.2-.3-.3l-1.6-2-.2-.2-1.3-1.4c-.8-1.2-2-2.5-2.7-3.7l-.7-1c-1.3-2-2.7-4-4-6.2a10.6,10.6,0,0,0-1-1.7l-2-5-.2-.4-1-3-1-3v-1a.8.8,0,0,1-.2-.7l-.3-2-.2-1.5v-1.3l-.2-1.8v-4.8c.2-2,.6-4,1-6.4l.8-2.3.6-1.5c0-.3,0-.3.2-.5l.5-.8s.3-.2.5,0Zm-20,14.8c.6.3.5.8.5,1.2l.2,1.3v.7l.2.7v.7l.2,1a.7.7,0,0,0,.2.6l.5,2.2a6.5,6.5,0,0,0,.6,2.3l1,3,.5,1.4.5,1,2.3,4.6,2,3.7.7,1,1.7,2.5a16.3,16.3,0,0,0,1.7,2.2c.2,0,.3.2.4.3a5.3,5.3,0,0,0,1,1.2,1,1,0,0,1,.4.5,2.2,2.2,0,0,1,.3,1.8c0,1-1,1.5-1.7,1.7l-.7.2c-.2,0-.5-.5-.7-.7l-.8-1a12.7,12.7,0,0,1-1.4-1.7l-3-3.8a67.4,67.4,0,0,1-5-9l-1.2-4-.3-1.5a11.7,11.7,0,0,1-.5-2v-.2l-.2-.4v-.5a1,1,0,0,0-.2-.8v-1l-.2-2v-.5l-.2-1.8v-3a3,3,0,0,0,.3-1V132a.8.8,0,0,1,.4-.7h.5Zm-15.2,3.2c.5.3.4.8.4,1.3v2l.2,1.8a.7.7,0,0,0,0,.7v1a.4.4,0,0,0,.3.3v.8a3.8,3.8,0,0,1,.4,1.3l1,3a48.8,48.8,0,0,0,2.8,6.4l1.2,2,.5,1,1.6,2.2,2.3,3,1,1,.7,1,1.6,1.7,1,1,1,1,.2.2,1,1,.5.5,1.6,1.5.6.3v.2c.3,0,.5.3.7.5l1,1h.3c.3.5,1,.8,1.2,1.2l.4.3.2.3,1,.7c0,.2.4.3.5.4l.4.4,1,.8,2.5,1.6c.3.2.8.4,1,.8l.2.6a2,2,0,0,1,0,1.5v.5a1.8,1.8,0,0,1-.6,1l-.4.4h-1a.4.4,0,0,0-.2-.4c-.6,0-1-.6-1.6-1h-.3l-.7-.4c-.2,0-.3-.3-.6-.4a1.1,1.1,0,0,1-.5-.4h-.3l-.6-.5-.8-.6-.8-.6-.6-.5c-.2,0-.3-.2-.5-.3l-.7-.7c-.3,0-.4-.2-.6-.3l-.8-.6a.4.4,0,0,1-.4-.2c0-.2-.4-.3-.5-.5h-.2c0-.2-.3-.3-.4-.5a5.8,5.8,0,0,0-1.5-1.3l-.5-.4a8.3,8.3,0,0,0-1.5-1.7l-.5-.5-1.4-1.6a.2.2,0,0,1,0-.3h0l-.8-.7c0-.2-.2-.2-.3-.3a16.4,16.4,0,0,1-2-2.5,30,30,0,0,1-3.6-4.7l-.8-1-1-2-1.6-3-1-2.2a6,6,0,0,0-.5-1.8,7,7,0,0,0-.5-1.8l-.4-1.8v-1a5.8,5.8,0,0,1-.4-1.7,32,32,0,0,1-.3-7.6l.2-1.8a.7.7,0,0,1,.3-.9h.7Z" fill="#3b434f" opacity="0.2" style="isolation:isolate"/></svg>